<?xml version="1.0" encoding="UTF-8" standalone="no"?><!-- Generator: Gravit.io --><svg xmlns="http://www.w3.org/2000/svg" xmlns:xlink="http://www.w3.org/1999/xlink" style="isolation:isolate" viewBox="0 0 256 256" width="256pt" height="256pt"><defs><clipPath id="_clipPath_9A2kjRqlYWuKm9rYDrvLRvuN2Ghl3Pn6"><rect width="256" height="256"/></clipPath></defs><g clip-path="url(#_clipPath_9A2kjRqlYWuKm9rYDrvLRvuN2Ghl3Pn6)"><rect width="256" height="256" style="fill:rgb(255,243,223)" fill-opacity="0"/><circle vector-effect="non-scaling-stroke" cx="128" cy="128" r="100" fill="rgb(73,54,27)"/><path d=" M 136.4 156.81 L 136.4 95.4 C 136.4 94.56 137.1 93.86 137.94 93.86 L 163 93.86 L 163 93.86 L 163 93.86 C 163.84 93.86 164.54 94.56 164.54 95.4 C 164.54 96.38 163.84 97.22 163 97.22 L 139.48 97.22 L 139.48 155.828 L 139.48 155.828 C 139.62 155.775 139.76 155.72 139.9 155.665 C 149.42 151.885 156.7 143.485 156.7 130.045 C 156.7 123.745 155.58 119.125 152.5 113.665 L 152.5 113.665 L 152.5 113.665 C 152.08 112.825 152.36 111.985 153.2 111.565 C 153.9 111.145 154.88 111.425 155.3 112.125 C 158.66 118.145 159.78 123.185 159.78 130.045 C 159.78 144.885 151.66 154.545 141.02 158.605 C 132.76 161.825 123.24 161.825 115.12 158.605 C 104.48 154.545 96.22 144.885 96.22 130.045 C 96.22 123.185 97.34 118.145 100.7 112.125 C 101.12 111.425 102.1 111.145 102.94 111.565 C 103.64 111.985 103.92 112.825 103.5 113.665 C 100.56 119.125 99.44 123.745 99.44 130.045 C 99.44 143.485 106.86 151.885 116.24 155.665 C 116.287 155.683 116.333 155.702 116.38 155.72 L 116.38 97.22 L 93 97.22 L 93 97.22 L 93 97.22 C 92.16 97.22 91.46 96.38 91.46 95.4 C 91.46 94.56 92.16 93.86 93 93.86 L 118.06 93.86 C 118.9 93.86 119.6 94.56 119.6 95.4 L 119.6 156.773 L 119.6 156.773 C 125.036 158.223 130.956 158.236 136.4 156.81 Z  M 93 77.06 L 93 77.06 L 162.86 77.06 C 163.84 77.06 164.54 76.36 164.54 75.52 C 164.54 74.68 163.84 73.98 162.86 73.98 L 93 73.98 C 92.16 73.98 91.46 74.68 91.46 75.52 C 91.46 76.36 92.16 77.06 93 77.06 L 93 77.06 L 93 77.06 Z  M 80.12 109.745 L 80.12 109.745 C 77.46 116.185 76.06 123.045 76.06 130.045 C 76.06 154.965 89.5 170.925 106.86 177.925 C 120.16 183.385 135.84 183.385 149.28 177.925 C 166.5 170.925 179.94 154.965 179.94 130.045 C 179.94 123.045 178.68 116.185 176.02 109.745 C 175.6 108.905 174.76 108.485 173.78 108.905 C 173.08 109.185 172.66 110.305 172.94 111.005 C 175.6 117.025 176.72 123.465 176.72 130.045 C 176.72 153.565 164.26 168.545 148.02 175.125 C 135.42 180.165 120.72 180.165 107.98 175.125 C 92.02 168.545 79.28 153.565 79.28 130.045 C 79.28 123.465 80.54 117.025 83.06 111.005 C 83.34 110.305 83.06 109.185 82.22 108.905 C 81.38 108.625 80.4 108.905 80.12 109.745 L 80.12 109.745 Z " fill-rule="evenodd" fill="rgb(255,243,223)"/></g></svg>
