<?xml version="1.0" encoding="UTF-8" standalone="no"?><!-- Generator: Gravit.io --><svg xmlns="http://www.w3.org/2000/svg" xmlns:xlink="http://www.w3.org/1999/xlink" style="isolation:isolate" viewBox="0 0 512 256" width="512pt" height="256pt"><defs><clipPath id="_clipPath_hAx6cGHhJlbOET0cee4WFsaps56xvd3C"><rect width="512" height="256"/></clipPath></defs><g clip-path="url(#_clipPath_hAx6cGHhJlbOET0cee4WFsaps56xvd3C)"><clipPath id="_clipPath_RpqBKRv4zWvTQw58VtdlzLpzvYnW03vK"><rect x="0" y="0" width="512" height="256" transform="matrix(1,0,0,1,0,0)" fill="rgb(255,255,255)"/></clipPath><g clip-path="url(#_clipPath_RpqBKRv4zWvTQw58VtdlzLpzvYnW03vK)"><g><rect x="0" y="0" width="512" height="256" transform="matrix(1,0,0,1,0,0)" fill="rgb(4,52,60)"/><path d=" M 195.934 176.424 C 187.283 164.8 181.965 149.63 181.965 130.915 C 181.965 120.937 183.96 111.159 187.752 101.979 L 187.752 101.979 L 187.752 101.979 L 187.752 101.979 C 188.151 100.782 189.548 100.383 190.745 100.782 C 191.943 101.181 192.342 102.778 191.943 103.775 C 188.351 112.356 186.555 121.536 186.555 130.915 C 186.555 150.029 192.458 165.187 201.749 176.424 L 195.934 176.424 L 195.934 176.424 L 195.934 176.424 Z  M 221.466 197.224 C 222.911 197.917 224.379 198.563 225.867 199.163 C 244.825 206.946 267.175 206.946 286.332 199.163 C 287.809 198.563 289.266 197.917 290.7 197.224 L 278.699 197.224 C 264.117 201.672 248.064 201.672 233.358 197.224 L 221.466 197.224 L 221.466 197.224 L 221.466 197.224 Z  M 316.095 176.424 C 324.717 164.8 330.035 149.63 330.035 130.915 C 330.035 120.937 328.239 111.159 324.448 101.979 C 323.849 100.782 322.652 100.183 321.255 100.782 C 320.257 101.181 319.658 102.778 320.057 103.775 C 323.849 112.356 325.445 121.536 325.445 130.915 C 325.445 150.029 319.672 165.187 310.418 176.424 L 316.095 176.424 L 316.095 176.424 L 316.095 176.424 Z  M 267.973 169.065 L 267.973 81.532 C 267.973 80.335 268.971 79.337 270.168 79.337 L 305.889 79.337 L 305.889 79.337 L 305.889 79.337 C 307.086 79.337 308.084 80.335 308.084 81.532 C 308.084 82.929 307.086 84.126 305.889 84.126 L 272.364 84.126 L 272.364 167.666 L 272.364 167.666 C 272.564 167.59 272.763 167.512 272.962 167.434 C 286.532 162.046 296.909 150.072 296.909 130.915 C 296.909 121.935 295.312 115.35 290.922 107.567 L 290.922 107.567 L 290.922 107.567 C 290.324 106.37 290.723 105.172 291.92 104.574 C 292.918 103.975 294.315 104.374 294.913 105.372 C 299.703 113.953 301.299 121.137 301.299 130.915 C 301.299 152.068 289.725 165.837 274.559 171.624 C 262.785 176.214 249.215 176.214 237.641 171.624 C 222.475 165.837 210.701 152.068 210.701 130.915 C 210.701 121.137 212.297 113.953 217.087 105.372 C 217.685 104.374 219.082 103.975 220.28 104.574 C 221.277 105.172 221.676 106.37 221.078 107.567 C 216.887 115.35 215.291 121.935 215.291 130.915 C 215.291 150.072 225.867 162.046 239.237 167.434 C 239.304 167.46 239.37 167.486 239.437 167.512 L 239.437 84.126 L 206.111 84.126 L 206.111 84.126 L 206.111 84.126 C 204.914 84.126 203.916 82.929 203.916 81.532 C 203.916 80.335 204.914 79.337 206.111 79.337 L 241.832 79.337 C 243.029 79.337 244.027 80.335 244.027 81.532 L 244.027 169.012 L 244.027 169.012 C 251.775 171.08 260.213 171.098 267.973 169.065 L 267.973 169.065 L 267.973 169.065 L 267.973 169.065 Z  M 206.111 55.39 L 206.111 55.39 L 305.689 55.39 C 307.086 55.39 308.084 54.392 308.084 53.195 C 308.084 51.998 307.086 51 305.689 51 L 206.111 51 C 204.914 51 203.916 51.998 203.916 53.195 C 203.916 54.392 204.914 55.39 206.111 55.39 L 206.111 55.39 L 206.111 55.39 L 206.111 55.39 L 206.111 55.39 L 206.111 55.39 Z  M 279.424 190.68 L 279.424 190.68 L 279.424 190.68 Q 280.56 190.68 281.416 190.104 L 281.416 190.104 L 281.416 190.104 Q 282.272 189.528 282.688 188.552 L 282.688 188.552 L 283.952 188.552 L 283.952 188.552 Q 283.424 190.056 282.208 190.92 L 282.208 190.92 L 282.208 190.92 Q 280.912 191.848 279.152 191.848 L 279.152 191.848 L 279.152 191.848 Q 276.832 191.848 275.392 190.264 L 275.392 190.264 L 275.392 190.264 Q 274.032 188.744 274.032 186.424 L 274.032 186.424 L 274.032 186.424 Q 274.032 184.104 275.392 182.584 L 275.392 182.584 L 275.392 182.584 Q 276.832 181 279.152 181 L 279.152 181 L 279.152 181 Q 280.912 181 282.208 181.928 L 282.208 181.928 L 282.208 181.928 Q 283.424 182.792 283.952 184.296 L 283.952 184.296 L 282.688 184.296 L 282.688 184.296 Q 282.272 183.32 281.416 182.744 L 281.416 182.744 L 281.416 182.744 Q 280.56 182.168 279.424 182.168 L 279.424 182.168 L 279.424 182.168 Q 278.288 182.168 277.536 182.496 L 277.536 182.496 L 277.536 182.496 Q 276.784 182.824 276.272 183.4 L 276.272 183.4 L 276.272 183.4 Q 275.232 184.568 275.232 186.424 L 275.232 186.424 L 275.232 186.424 Q 275.232 188.28 276.272 189.448 L 276.272 189.448 L 276.272 189.448 Q 277.36 190.68 279.424 190.68 L 279.424 190.68 L 279.424 190.68 Z  M 300.368 190.68 L 300.368 190.68 L 300.368 190.68 Q 302.256 190.68 303.424 189.448 L 303.424 189.448 L 303.424 189.448 Q 304.544 188.264 304.544 186.424 L 304.544 186.424 L 304.544 186.424 Q 304.544 184.584 303.424 183.4 L 303.424 183.4 L 303.424 183.4 Q 302.256 182.168 300.368 182.168 L 300.368 182.168 L 300.368 182.168 Q 298.48 182.168 297.312 183.4 L 297.312 183.4 L 297.312 183.4 Q 296.192 184.584 296.192 186.424 L 296.192 186.424 L 296.192 186.424 Q 296.192 188.264 297.312 189.448 L 297.312 189.448 L 297.312 189.448 Q 298.48 190.68 300.368 190.68 L 300.368 190.68 L 300.368 190.68 Z  M 318.88 182.752 L 318.88 182.752 L 318.88 182.752 Q 318.576 183.016 318.472 183.336 L 318.472 183.336 L 318.472 183.336 Q 318.368 183.656 318.368 184.016 L 318.368 184.016 L 318.368 184.016 Q 318.368 184.376 318.68 184.68 L 318.68 184.68 L 318.68 184.68 Q 318.992 184.984 319.504 185.192 L 319.504 185.192 L 319.504 185.192 Q 320.016 185.4 320.672 185.56 L 320.672 185.56 L 320.672 185.56 Q 321.328 185.72 322.008 185.888 L 322.008 185.888 L 322.008 185.888 Q 322.688 186.056 323.344 186.272 L 323.344 186.272 L 323.344 186.272 Q 324 186.488 324.512 186.824 L 324.512 186.824 L 324.512 186.824 Q 325.648 187.544 325.648 188.792 L 325.648 188.792 L 325.648 188.792 Q 325.648 190.28 324.536 191.064 L 324.536 191.064 L 324.536 191.064 Q 323.424 191.848 321.456 191.848 L 321.456 191.848 L 321.456 191.848 Q 319.232 191.848 318.064 190.92 L 318.064 190.92 L 318.064 190.92 Q 317.024 190.088 316.88 188.552 L 316.88 188.552 L 318.128 188.552 L 318.128 188.552 Q 318.192 189.64 319.184 190.216 L 319.184 190.216 L 319.184 190.216 Q 320.048 190.712 321.472 190.712 L 321.472 190.712 L 321.472 190.712 Q 324.448 190.712 324.448 188.84 L 324.448 188.84 L 324.448 188.84 Q 324.448 188.2 323.912 187.832 L 323.912 187.832 L 323.912 187.832 Q 323.376 187.464 322.568 187.224 L 322.568 187.224 L 322.568 187.224 Q 321.76 186.984 320.824 186.776 L 320.824 186.776 L 320.824 186.776 Q 319.888 186.568 319.08 186.24 L 319.08 186.24 L 319.08 186.24 Q 318.272 185.912 317.736 185.376 L 317.736 185.376 L 317.736 185.376 Q 317.2 184.84 317.2 183.928 L 317.2 183.928 L 317.2 183.928 Q 317.2 182.632 318.192 181.816 L 318.192 181.816 L 318.192 181.816 Q 319.184 181 321.184 181 L 321.184 181 L 321.184 181 Q 323.2 181 324.304 181.928 L 324.304 181.928 L 324.304 181.928 Q 325.312 182.744 325.376 184.024 L 325.376 184.024 L 324.144 184.024 L 324.144 184.024 Q 323.984 182.712 322.448 182.28 L 322.448 182.28 L 322.448 182.28 Q 321.904 182.12 321.096 182.12 L 321.096 182.12 L 321.096 182.12 Q 320.288 182.12 319.736 182.304 L 319.736 182.304 L 319.736 182.304 Q 319.184 182.488 318.88 182.752 L 318.88 182.752 L 318.88 182.752 Z  M 338.72 182.752 L 338.72 182.752 L 338.72 182.752 Q 338.416 183.016 338.312 183.336 L 338.312 183.336 L 338.312 183.336 Q 338.208 183.656 338.208 184.016 L 338.208 184.016 L 338.208 184.016 Q 338.208 184.376 338.52 184.68 L 338.52 184.68 L 338.52 184.68 Q 338.832 184.984 339.344 185.192 L 339.344 185.192 L 339.344 185.192 Q 339.856 185.4 340.512 185.56 L 340.512 185.56 L 340.512 185.56 Q 341.168 185.72 341.848 185.888 L 341.848 185.888 L 341.848 185.888 Q 342.528 186.056 343.184 186.272 L 343.184 186.272 L 343.184 186.272 Q 343.84 186.488 344.352 186.824 L 344.352 186.824 L 344.352 186.824 Q 345.488 187.544 345.488 188.792 L 345.488 188.792 L 345.488 188.792 Q 345.488 190.28 344.376 191.064 L 344.376 191.064 L 344.376 191.064 Q 343.264 191.848 341.296 191.848 L 341.296 191.848 L 341.296 191.848 Q 339.072 191.848 337.904 190.92 L 337.904 190.92 L 337.904 190.92 Q 336.864 190.088 336.72 188.552 L 336.72 188.552 L 337.968 188.552 L 337.968 188.552 Q 338.032 189.64 339.024 190.216 L 339.024 190.216 L 339.024 190.216 Q 339.888 190.712 341.312 190.712 L 341.312 190.712 L 341.312 190.712 Q 344.288 190.712 344.288 188.84 L 344.288 188.84 L 344.288 188.84 Q 344.288 188.2 343.752 187.832 L 343.752 187.832 L 343.752 187.832 Q 343.216 187.464 342.408 187.224 L 342.408 187.224 L 342.408 187.224 Q 341.6 186.984 340.664 186.776 L 340.664 186.776 L 340.664 186.776 Q 339.728 186.568 338.92 186.24 L 338.92 186.24 L 338.92 186.24 Q 338.112 185.912 337.576 185.376 L 337.576 185.376 L 337.576 185.376 Q 337.04 184.84 337.04 183.928 L 337.04 183.928 L 337.04 183.928 Q 337.04 182.632 338.032 181.816 L 338.032 181.816 L 338.032 181.816 Q 339.024 181 341.024 181 L 341.024 181 L 341.024 181 Q 343.04 181 344.144 181.928 L 344.144 181.928 L 344.144 181.928 Q 345.152 182.744 345.216 184.024 L 345.216 184.024 L 343.984 184.024 L 343.984 184.024 Q 343.824 182.712 342.288 182.28 L 342.288 182.28 L 342.288 182.28 Q 341.744 182.12 340.936 182.12 L 340.936 182.12 L 340.936 182.12 Q 340.128 182.12 339.576 182.304 L 339.576 182.304 L 339.576 182.304 Q 339.024 182.488 338.72 182.752 L 338.72 182.752 L 338.72 182.752 Z  M 362.048 190.68 L 362.048 190.68 L 362.048 190.68 Q 363.936 190.68 365.104 189.448 L 365.104 189.448 L 365.104 189.448 Q 366.224 188.264 366.224 186.424 L 366.224 186.424 L 366.224 186.424 Q 366.224 184.584 365.104 183.4 L 365.104 183.4 L 365.104 183.4 Q 363.936 182.168 362.048 182.168 L 362.048 182.168 L 362.048 182.168 Q 360.16 182.168 358.992 183.4 L 358.992 183.4 L 358.992 183.4 Q 357.872 184.584 357.872 186.424 L 357.872 186.424 L 357.872 186.424 Q 357.872 188.264 358.992 189.448 L 358.992 189.448 L 358.992 189.448 Q 360.16 190.68 362.048 190.68 L 362.048 190.68 L 362.048 190.68 Z  M 387.28 181.128 L 388.48 181.128 L 388.48 191.72 L 387.088 191.72 L 380.544 182.776 L 380.544 191.72 L 379.344 191.72 L 379.344 181.128 L 380.736 181.128 L 387.28 190.04 L 387.28 181.128 L 387.28 181.128 L 387.28 181.128 Z  M 132.112 181.128 L 132.112 182.28 L 128.416 182.28 L 128.416 191.72 L 127.216 191.72 L 127.216 182.28 L 123.52 182.28 L 123.52 181.128 L 132.112 181.128 L 132.112 181.128 L 132.112 181.128 Z  M 144.832 181.128 L 144.832 191.72 L 143.632 191.72 L 143.632 181.128 L 144.832 181.128 L 144.832 181.128 L 144.832 181.128 Z  M 164.944 181.128 L 164.944 182.28 L 161.248 182.28 L 161.248 191.72 L 160.048 191.72 L 160.048 182.28 L 156.352 182.28 L 156.352 181.128 L 164.944 181.128 L 164.944 181.128 L 164.944 181.128 Z  M 180.72 190.68 L 180.72 190.68 L 180.72 190.68 Q 182.608 190.68 183.776 189.448 L 183.776 189.448 L 183.776 189.448 Q 184.896 188.264 184.896 186.424 L 184.896 186.424 L 184.896 186.424 Q 184.896 184.584 183.776 183.4 L 183.776 183.4 L 183.776 183.4 Q 182.608 182.168 180.72 182.168 L 180.72 182.168 L 180.72 182.168 Q 178.832 182.168 177.664 183.4 L 177.664 183.4 L 177.664 183.4 Q 176.544 184.584 176.544 186.424 L 176.544 186.424 L 176.544 186.424 Q 176.544 188.264 177.664 189.448 L 177.664 189.448 L 177.664 189.448 Q 178.832 190.68 180.72 190.68 L 180.72 190.68 L 180.72 190.68 Z  M 205.696 181.128 L 206.896 181.128 L 206.896 187.16 L 206.896 187.16 Q 206.896 189.272 205.64 190.56 L 205.64 190.56 L 205.64 190.56 Q 204.384 191.848 202.384 191.848 L 202.384 191.848 L 202.384 191.848 Q 200.4 191.848 199.144 190.56 L 199.144 190.56 L 199.144 190.56 Q 197.888 189.272 197.888 187.16 L 197.888 187.16 L 197.888 181.128 L 199.088 181.128 L 199.088 187.192 L 199.088 187.192 Q 199.088 188.904 200.112 189.864 L 200.112 189.864 L 200.112 189.864 Q 200.992 190.68 202.384 190.68 L 202.384 190.68 L 202.384 190.68 Q 203.776 190.68 204.672 189.864 L 204.672 189.864 L 204.672 189.864 Q 205.696 188.92 205.696 187.192 L 205.696 187.192 L 205.696 181.128 L 205.696 181.128 L 205.696 181.128 Z  M 220.816 187.544 L 225.136 187.544 L 222.976 182.376 L 220.816 187.544 L 220.816 187.544 L 220.816 187.544 Z  M 247.504 181.128 L 248.704 181.128 L 248.704 191.72 L 247.312 191.72 L 240.768 182.776 L 240.768 191.72 L 239.568 191.72 L 239.568 181.128 L 240.96 181.128 L 247.504 190.04 L 247.504 181.128 L 247.504 181.128 L 247.504 181.128 Z  M 300.368 181 L 300.368 181 L 300.368 181 Q 302.736 181 304.256 182.584 L 304.256 182.584 L 304.256 182.584 Q 305.744 184.12 305.744 186.424 L 305.744 186.424 L 305.744 186.424 Q 305.744 188.728 304.256 190.264 L 304.256 190.264 L 304.256 190.264 Q 302.736 191.848 300.368 191.848 L 300.368 191.848 L 300.368 191.848 Q 298 191.848 296.48 190.264 L 296.48 190.264 L 296.48 190.264 Q 294.992 188.728 294.992 186.424 L 294.992 186.424 L 294.992 186.424 Q 294.992 184.12 296.48 182.584 L 296.48 182.584 L 296.48 182.584 Q 298 181 300.368 181 L 300.368 181 L 300.368 181 Z  M 362.048 181 L 362.048 181 L 362.048 181 Q 364.416 181 365.936 182.584 L 365.936 182.584 L 365.936 182.584 Q 367.424 184.12 367.424 186.424 L 367.424 186.424 L 367.424 186.424 Q 367.424 188.728 365.936 190.264 L 365.936 190.264 L 365.936 190.264 Q 364.416 191.848 362.048 191.848 L 362.048 191.848 L 362.048 191.848 Q 359.68 191.848 358.16 190.264 L 358.16 190.264 L 358.16 190.264 Q 356.672 188.728 356.672 186.424 L 356.672 186.424 L 356.672 186.424 Q 356.672 184.12 358.16 182.584 L 358.16 182.584 L 358.16 182.584 Q 359.68 181 362.048 181 L 362.048 181 L 362.048 181 Z  M 180.72 181 L 180.72 181 L 180.72 181 Q 183.088 181 184.608 182.584 L 184.608 182.584 L 184.608 182.584 Q 186.096 184.12 186.096 186.424 L 186.096 186.424 L 186.096 186.424 Q 186.096 188.728 184.608 190.264 L 184.608 190.264 L 184.608 190.264 Q 183.088 191.848 180.72 191.848 L 180.72 191.848 L 180.72 191.848 Q 178.352 191.848 176.832 190.264 L 176.832 190.264 L 176.832 190.264 Q 175.344 188.728 175.344 186.424 L 175.344 186.424 L 175.344 186.424 Q 175.344 184.12 176.832 182.584 L 176.832 182.584 L 176.832 182.584 Q 178.352 181 180.72 181 L 180.72 181 L 180.72 181 Z  M 223.728 181.128 L 228.224 191.72 L 226.896 191.72 L 225.6 188.648 L 220.352 188.648 L 219.056 191.72 L 217.728 191.72 L 222.224 181.128 L 223.728 181.128 L 223.728 181.128 L 223.728 181.128 Z " fill-rule="evenodd" fill="rgb(247,181,116)"/></g></g></g></svg>